<?xml version="1.0" encoding="UTF-8"?>
<svg width="16px" height="30px" viewBox="0 0 16 30" version="1.1" xmlns="http://www.w3.org/2000/svg" xmlns:xlink="http://www.w3.org/1999/xlink">
    <!-- Generator: Sketch 63.1 (92452) - https://sketch.com -->
    <title>Path</title>
    <desc>Created with Sketch.</desc>
    <g id="Layout" stroke="none" stroke-width="1" fill="none" fill-rule="evenodd">
        <g id="home-nupillinst" transform="translate(-1589.000000, -2438.000000)" fill="#FFFFFF" fill-rule="nonzero">
            <g id="meio" transform="translate(0.000000, 110.000000)">
                <g id="os-primeiros-produtos" transform="translate(0.000000, 2151.000000)">
                    <g id="seta" transform="translate(895.000000, 177.000000)">
                        <path d="M709.639281,0.366241307 C709.158476,-0.122080436 708.379635,-0.122080436 707.898945,0.366241307 L694.360604,14.1162425 C693.879799,14.6045643 693.879799,15.3955822 694.360604,15.8837868 L707.898945,29.633788 C708.13929,29.8778903 708.454288,30 708.769171,30 C709.084054,30 709.398936,29.8778903 709.639396,29.633788 C710.120201,29.1454662 710.120201,28.3544483 709.639396,27.8662437 L696.971165,15.0000732 L709.639396,2.13378555 C710.120086,1.64558099 710.120086,0.85456305 709.639281,0.366241307 Z" id="Path" transform="translate(702.000000, 15.000000) rotate(-180.000000) translate(-702.000000, -15.000000) "></path>
                    </g>
                </g>
            </g>
        </g>
    </g>
</svg>