<?xml version="1.0" encoding="UTF-8"?>
<svg width="39px" height="28px" viewBox="0 0 39 28" version="1.1" xmlns="http://www.w3.org/2000/svg" xmlns:xlink="http://www.w3.org/1999/xlink">
    <!-- Generator: Sketch 63.1 (92452) - https://sketch.com -->
    <title>Combined Shape</title>
    <desc>Created with Sketch.</desc>
    <g id="Layout" stroke="none" stroke-width="1" fill="none" fill-rule="evenodd">
        <g id="home-nupillinst" transform="translate(-1235.000000, -3435.000000)" fill="#2E2C7B" fill-rule="nonzero">
            <g id="meio" transform="translate(0.000000, 110.000000)">
                <g id="qualidade" transform="translate(315.000000, 3084.000000)">
                    <g id="pilares" transform="translate(0.000000, 195.000000)">
                        <g id="eficacia" transform="translate(880.000000, 0.000000)">
                            <path d="M66.0594131,46 C66.4269074,46 66.7736978,46.1527273 67.0221446,46.4225455 L67.0221446,46.4225455 L78.6680905,59.1498182 C79.1106365,59.6309091 79.1106365,60.3690909 78.6680905,60.8527273 L78.6680905,60.8527273 L67.0221446,73.58 C66.7736978,73.8447273 66.4269074,74 66.0594131,74 L66.0594131,74 L58.2954491,74 C57.7856155,74 57.3223657,73.7047273 57.1127386,73.244 C56.9031116,72.7858182 56.9911032,72.2487273 57.3327176,71.8745455 L57.3327176,71.8745455 L68.1996792,60 L57.3327176,48.1229091 C56.9911032,47.7512727 56.9056996,47.2141818 57.1127386,46.7534545 C57.3223657,46.2952727 57.7856155,46 58.2954491,46 L58.2954491,46 Z M49.0594131,46 C49.4269074,46 49.7736978,46.1527273 50.0221446,46.4225455 L50.0221446,46.4225455 L61.6680905,59.1498182 C62.1106365,59.6309091 62.1106365,60.3690909 61.6680905,60.8527273 L61.6680905,60.8527273 L50.0221446,73.58 C49.7736978,73.8447273 49.4269074,74 49.0594131,74 L49.0594131,74 L41.2954491,74 C40.7856155,74 40.3223657,73.7047273 40.1127386,73.244 C39.9031116,72.7858182 39.9911032,72.2487273 40.3327176,71.8745455 L40.3327176,71.8745455 L51.1996792,60 L40.3327176,48.1229091 C39.9911032,47.7512727 39.9056996,47.2141818 40.1127386,46.7534545 C40.3223657,46.2952727 40.7856155,46 41.2954491,46 L41.2954491,46 Z" id="Combined-Shape"></path>
                        </g>
                    </g>
                </g>
            </g>
        </g>
    </g>
</svg>