<?xml version="1.0" encoding="UTF-8"?>
<svg width="25px" height="25px" viewBox="0 0 25 25" version="1.1" xmlns="http://www.w3.org/2000/svg" xmlns:xlink="http://www.w3.org/1999/xlink">
    <!-- Generator: Sketch 63.1 (92452) - https://sketch.com -->
    <title>Combined Shape</title>
    <desc>Created with Sketch.</desc>
    <g id="Layout" stroke="none" stroke-width="1" fill="none" fill-rule="evenodd">
        <g id="home-nupillinst" transform="translate(-755.000000, -4211.000000)" fill="#2E2C7B" fill-rule="nonzero">
            <g id="meio" transform="translate(0.000000, 110.000000)">
                <g id="meio-ambiente" transform="translate(315.000000, 3719.000000)">
                    <g id="opcoes" transform="translate(0.000000, 382.000000)">
                        <g id="opt1" transform="translate(440.000000, 0.000000)">
                            <path d="M12.5,0 C13.0204102,0 13.4422363,0.421777344 13.4422363,0.942236328 C13.4422363,1.46264648 13.0204102,1.88442383 12.5,1.88442383 C6.64667969,1.88442383 1.88442383,6.64667969 1.88442383,12.5 C1.88442383,18.3536621 6.64667969,23.1155762 12.5,23.1155762 C18.3536621,23.1155762 23.1155762,18.3536621 23.1155762,12.5 C23.1155762,11.979541 23.5373535,11.5577637 24.0577637,11.5577637 C24.5782227,11.5577637 25,11.9795898 25,12.5 C25,19.3922852 19.3922852,25 12.5,25 C5.60742188,25 0,19.3922852 0,12.5 C0,5.60742188 5.60742188,0 12.5,0 Z M23.3817408,3.83752007 C23.751995,3.48217348 24.3527487,3.48278728 24.7230029,3.83903098 C25.0929622,4.19527467 25.0923231,4.77229975 24.7211349,5.12759912 L24.7211349,5.12759912 L12.6426976,16.6985548 C12.4649932,16.8686264 12.2237775,16.9642857 11.9730251,16.9642857 L11.9730251,16.9642857 L11.9527722,16.9640024 C11.6947446,16.9588559 11.4500386,16.8528563 11.2751854,16.6703197 L11.2751854,16.6703197 L6.50071517,11.6899432 C6.14594557,11.3197236 6.17062263,10.7433123 6.5560665,10.4025554 C6.94180531,10.0618458 7.54162499,10.0858314 7.89639458,10.4557205 L7.89639458,10.4557205 L12.0021263,14.7388132 Z" id="Combined-Shape"></path>
                        </g>
                    </g>
                </g>
            </g>
        </g>
    </g>
</svg>