<?xml version="1.0" encoding="UTF-8"?>
<svg width="40px" height="40px" viewBox="0 0 40 40" version="1.1" xmlns="http://www.w3.org/2000/svg" xmlns:xlink="http://www.w3.org/1999/xlink">
    <!-- Generator: Sketch 63.1 (92452) - https://sketch.com -->
    <title>Shape</title>
    <desc>Created with Sketch.</desc>
    <g id="Layout" stroke="none" stroke-width="1" fill="none" fill-rule="evenodd">
        <g id="home-nupillinst" transform="translate(-795.000000, -3429.000000)" fill="#2E2C7B" fill-rule="nonzero">
            <g id="meio" transform="translate(0.000000, 110.000000)">
                <g id="qualidade" transform="translate(315.000000, 3084.000000)">
                    <g id="pilares" transform="translate(0.000000, 195.000000)">
                        <g id="tecnologia" transform="translate(440.000000, 0.000000)">
                            <g id="Shape" transform="translate(40.000000, 40.000000)">
                                <path d="M39.0292892,15.1434948 L36.0371094,14.773507 L35.0357815,12.3558597 L36.8895939,9.97842045 C37.2331324,9.53793699 37.1945299,8.91048758 36.7995869,8.51543768 L31.484009,3.20041315 C31.0890073,2.80541373 30.461555,2.76673191 30.0210262,3.1102217 L27.6434026,4.96421853 L25.2259397,3.96270611 L24.855583,0.970710834 C24.7869711,0.416363763 24.3160007,0 23.7574237,0 L16.2418385,0 C15.6831291,0 15.2120298,0.416405263 15.1434948,0.970895275 L14.7736914,3.96270611 L12.3562286,4.96421853 L9.97823601,3.1102217 C9.5377072,2.76673191 8.91025491,2.80541373 8.51525324,3.20041315 L3.20041315,8.515991 C2.80541373,8.91099267 2.76673191,9.53844497 3.1102217,9.97897377 L4.96421853,12.356413 L3.96289055,14.7740603 L0.970710834,15.1440481 C0.416503238,15.2126427 0,15.6834021 0,16.2418385 L0,23.7579771 C0,24.3166243 0.416294004,24.7877003 0.970710834,24.8563208 L3.96289055,25.226493 L4.96421853,27.6441403 L3.1102217,30.021764 C2.76673191,30.4622928 2.80541373,31.0897451 3.20041315,31.4847468 L8.51525324,36.7995869 C8.91020668,37.1946427 9.53766186,37.2334038 9.97823601,36.8899627 L12.3558597,35.0359659 L14.7733225,36.0374783 L15.1434948,39.0292892 C15.2121153,39.583706 15.6831912,40 16.2418385,40 L23.7581615,40 C24.3167385,40 24.7877089,39.5836362 24.8563208,39.0292892 L25.2266775,36.0372939 L27.6441403,35.0357815 L30.021764,36.8897783 C30.4623381,37.2332193 31.0897933,37.1944582 31.4847468,36.7994024 L36.7995869,31.4845623 C37.1945299,31.0895124 37.2331324,30.462063 36.8895939,30.0215795 L35.0357815,27.6441403 L36.0371094,25.226493 L39.0292892,24.8563208 C39.583706,24.7877003 40,24.3166243 40,23.7579771 L40,16.2418385 C40,15.6831912 39.583706,15.2121153 39.0292892,15.1434948 L39.0292892,15.1434948 Z M26.559471,20.0003689 C26.559471,23.1299045 24.3489004,25.8236829 21.2795096,26.4342833 C18.2101187,27.0448837 15.1368401,25.4022435 13.9391836,22.5109442 C12.7415271,19.6196448 13.7530604,16.2849621 16.355165,14.5462716 C18.9572696,12.8075811 22.4252152,13.1491375 24.6381276,15.3620569 C25.8724725,16.5894163 26.5643425,18.2596809 26.559471,20.0003689 L26.559471,20.0003689 Z"></path>
                            </g>
                        </g>
                    </g>
                </g>
            </g>
        </g>
    </g>
</svg>