<?xml version="1.0" encoding="UTF-8"?>
<svg width="20px" height="20px" viewBox="0 0 20 20" version="1.1" xmlns="http://www.w3.org/2000/svg" xmlns:xlink="http://www.w3.org/1999/xlink">
    <!-- Generator: Sketch 63.1 (92452) - https://sketch.com -->
    <title>Combined Shape</title>
    <desc>Created with Sketch.</desc>
    <g id="Symbols" stroke="none" stroke-width="1" fill="none" fill-rule="evenodd">
        <g id="rodape-nupillinst" transform="translate(-554.000000, -138.000000)" fill="#3891C7" fill-rule="nonzero">
            <g id="infos" transform="translate(315.000000, 40.000000)">
                <g id="redes" transform="translate(225.000000, 0.000000)">
                    <g id="ig" transform="translate(0.000000, 84.000000)">
                        <path d="M19.8843575,14.0628211 C21.7260247,13.9811559 26.2835258,13.9769893 28.1235263,14.0628211 C31.8876939,14.2361514 33.771861,16.3652809 33.9368611,19.8760529 C34.0185278,21.7176874 34.0235278,26.2742745 33.9368611,28.1150757 C33.8001944,31.0891904 32.4018607,32.7449948 30.5493602,33.4641489 C29.2747631,33.9576081 28.0286078,33.9872564 24.7185094,33.989028 L23.6435602,33.9898463 C20.0787939,34.0031588 17.5562387,34.1793784 15.6876898,32.3116691 C13.7935227,30.4175355 14.0101894,27.885913 14.0101894,23.995981 C14.0101894,20.195214 13.764356,17.6035926 15.6876898,15.6802929 C16.8385234,14.5294796 18.2660238,14.1386531 19.8843575,14.0628211 Z M23.9676919,15.7761245 C21.2951912,15.7761245 20.9826911,15.7886243 19.9210242,15.8261237 C15.3001897,16.0627862 15.7726898,19.3785616 15.7726898,23.9826479 C15.7726898,27.3850884 15.5185231,29.6292159 16.9226901,31.0266915 C18.0679682,32.1750806 19.6118246,32.1902624 23.2488299,32.1878845 L24.3409586,32.1877731 C28.131588,32.1930616 29.8134004,32.2617962 31.036027,31.0391913 C32.275194,29.794213 32.1968606,28.1134091 32.197694,23.9951477 L32.1972573,23.1885785 C32.1948339,21.247387 32.1815828,20.8930722 32.1393606,19.9560515 C31.9301939,15.3361322 28.4460264,15.8011241 24.0051919,15.8011241 L24.0051919,15.8011241 Z M24,19 C26.7606366,19 29,21.2369276 29,24 C29,26.7606366 26.7630724,29 24,29 C21.2393634,29 19,26.7630724 19,24 C19,21.2393634 21.2369276,19 24,19 Z M24,20.7546281 C22.2072101,20.7546281 20.7546281,22.2072101 20.7546281,24 C20.7546281,25.7927899 22.2063982,27.2453719 24,27.2453719 C25.7936018,27.2453719 27.2461838,25.7927899 27.2453722,24 C27.2453722,22.2072101 25.7927899,20.7546281 24,20.7546281 Z M29,18 C29.5522847,18 30,18.4477153 30,19 C30,19.5522847 29.5522847,20 29,20 C28.4477153,20 28,19.5522847 28,19 C28,18.4477153 28.4477153,18 29,18 Z" id="Combined-Shape"></path>
                    </g>
                </g>
            </g>
        </g>
    </g>
</svg>