<?xml version="1.0" encoding="UTF-8"?>
<svg width="30px" height="40px" viewBox="0 0 30 40" version="1.1" xmlns="http://www.w3.org/2000/svg" xmlns:xlink="http://www.w3.org/1999/xlink">
    <!-- Generator: Sketch 63.1 (92452) - https://sketch.com -->
    <title>2910875</title>
    <desc>Created with Sketch.</desc>
    <g id="Layout" stroke="none" stroke-width="1" fill="none" fill-rule="evenodd">
        <g id="home-nupillinst" transform="translate(-355.000000, -3429.000000)">
            <g id="meio" transform="translate(0.000000, 110.000000)">
                <g id="qualidade" transform="translate(315.000000, 3084.000000)">
                    <g id="pilares" transform="translate(0.000000, 195.000000)">
                        <g id="inova">
                            <g id="2910875" transform="translate(40.000000, 40.000000)">
                                <g id="Path">
                                    <path d="M30,14.6544909 C30,19.1773342 27.9001927,23.365152 24.2790965,26.1709899 C22.8006608,27.3017007 21.8364636,28.7883761 21.5364911,30.3797468 L21.4293581,30.3588077 L8.57339518,30.3588077 L8.42340894,30.3797468 C8.12343647,28.7255588 7.24494568,27.2807616 5.98077599,26.3594417 C1.30977614,22.904492 -0.875737551,17.250938 0.324152319,11.5555057 C1.50261558,6.00664709 6.10933562,1.48380383 11.7873859,0.332153932 C16.3083995,-0.610105078 20.9365462,0.478727556 24.4505094,3.26362641 C27.9858991,6.06946435 30,10.215404 30,14.6544909 L30,14.6544909 Z" fill="#2E2C7B" fill-rule="nonzero"></path>
                                    <path d="M21.3559322,30.4011252 C21.2911266,30.764557 21.2479229,31.1279887 21.2479229,31.5127989 L21.2479229,36.2587904 C21.2479229,38.3111111 19.5413759,40 17.4675972,40 L12.0671319,40 C10.2525756,40 8.28680625,38.6317862 8.28680625,35.6388186 L8.28680625,31.8548523 C8.28680625,31.3631505 8.24360253,30.8714487 8.13559322,30.4011252 L8.28680625,30.3797468 L21.2479229,30.3797468 L21.3559322,30.4011252 Z" fill="#8C8C8C" fill-rule="nonzero"></path>
                                    <path d="M14.7457627,30.3797468 L8.2863137,30.3797468 L8.13559322,30.4011252 C8.2432507,30.8714487 8.2863137,31.3631505 8.2863137,31.8548523 L8.2863137,35.6388186 C8.2863137,38.6317862 10.2456799,40 12.0543256,40 L14.7457627,40 L14.7457627,30.3797468 Z" fill="#676767" fill-rule="nonzero"></path>
                                    <path d="M22.8050847,15.6962025 C21.9209492,15.6962025 21.2033898,14.9816709 21.2033898,14.1012658 C21.2033898,10.8752405 18.5702034,8.25316456 15.3305085,8.25316456 C14.4463729,8.25316456 13.7288136,7.53863291 13.7288136,6.65822785 C13.7288136,5.77782278 14.4463729,5.06329114 15.3305085,5.06329114 C20.3342034,5.06329114 24.4067797,9.11868354 24.4067797,14.1012658 C24.4067797,14.9816709 23.6892203,15.6962025 22.8050847,15.6962025 Z" fill="#F7FCFF" fill-rule="nonzero"></path>
                                </g>
                            </g>
                        </g>
                    </g>
                </g>
            </g>
        </g>
    </g>
</svg>