<?xml version="1.0" encoding="UTF-8"?>
<svg width="27px" height="20px" viewBox="0 0 27 20" version="1.1" xmlns="http://www.w3.org/2000/svg" xmlns:xlink="http://www.w3.org/1999/xlink">
    <!-- Generator: Sketch 63.1 (92452) - https://sketch.com -->
    <title>Combined Shape</title>
    <desc>Created with Sketch.</desc>
    <g id="Symbols" stroke="none" stroke-width="1" fill="none" fill-rule="evenodd">
        <g id="rodape-nupillinst" transform="translate(-551.000000, -186.000000)" fill="#3891C7" fill-rule="nonzero">
            <g id="infos" transform="translate(315.000000, 40.000000)">
                <g id="redes" transform="translate(225.000000, 0.000000)">
                    <g id="yt" transform="translate(0.000000, 132.000000)">
                        <path d="M24.5046348,13.999 C24.5586047,13.9992014 29.9492115,14.0338523 33.5186423,14.28769 L33.5186423,14.28769 L33.5658145,14.292525 C33.605983,14.297763 33.6508892,14.3027994 33.6999154,14.3082388 C34.2921425,14.3741158 35.5235632,14.5115105 36.6097595,15.6424989 C37.5494954,16.6040606 37.7771166,18.4945477 37.7999817,18.7070865 L37.7999817,18.7070865 L37.8012177,18.719174 C37.8092514,18.8078158 38,20.9130577 38,23.0267609 L38,23.0267609 L38,25.0026665 C38,27.1163697 37.8092514,29.2216117 37.8012177,29.3102534 L37.8012177,29.3102534 L37.7981278,29.3372489 C37.7717608,29.5449526 37.5128287,31.3949466 36.6177932,32.3464354 C35.5435444,33.5024046 34.331899,33.6279133 33.7497654,33.6883509 C33.6941475,33.6939917 33.6434735,33.6992296 33.5983612,33.7050719 L33.5983612,33.7050719 L33.551189,33.7099069 C30.2197203,33.9468222 25.3019844,33.9928013 24.6172133,33.9980427 L24.4909584,33.9981694 C23.9417304,33.9902149 17.7361029,33.8957189 15.7242224,33.7084967 L15.7242224,33.7084967 L15.6618068,33.7000354 C15.5973313,33.6889552 15.5027809,33.6784794 15.3929871,33.6661904 C14.6983818,33.5884274 13.4070175,33.4437801 12.3857087,32.350666 C11.4502987,31.3887014 11.2228834,29.5328651 11.2000183,29.3237512 L11.2000183,29.3237512 L11.1985764,29.3104549 C11.1905427,29.2218131 11,27.1163697 11,25.0026665 L11.0007121,22.8004158 C11.0133774,20.7652416 11.1908296,18.8044558 11.1985764,18.719174 L11.1985764,18.719174 L11.2016663,18.6921786 C11.2282392,18.4842733 11.4869653,16.6342793 12.3820009,15.6829921 C13.471287,14.5111076 14.6895242,14.3735114 15.2749536,14.307433 C15.3208899,14.3021951 15.3631183,14.2975616 15.4014328,14.292525 L15.4014328,14.292525 L15.449017,14.28769 C19.0505825,14.0338523 24.4411893,13.9992014 24.4951592,13.999 L24.4951592,13.999 Z M24.6063092,15.5469983 L24.4437494,15.5466276 C23.8410586,15.5513584 18.9288599,15.5952294 15.5853837,15.8294524 C15.5456273,15.8344889 15.5025749,15.8393239 15.4564327,15.8445618 C14.9731753,15.8991571 14.2425213,15.9817551 13.549564,16.7271518 C13.1316061,17.1715693 12.8535168,18.2711302 12.7733858,18.8712752 C12.7564945,19.0600419 12.5822252,21.0726129 12.5822252,23.0267609 L12.5822252,23.0267609 L12.5822252,25.0026665 C12.5822252,26.9864289 12.7614383,29.0249881 12.7740038,29.1648003 C12.8413632,29.7558798 13.106475,30.8504041 13.5349385,31.2869648 L13.5349385,31.2869648 L13.549564,31.3022757 C14.1720721,31.9719239 14.9816209,32.0625803 15.5730242,32.1288601 C15.6896157,32.1417535 15.8002335,32.1542439 15.9026115,32.170562 C17.9007347,32.3520762 24.2679499,32.4473661 24.5359456,32.4511938 C24.7748965,32.4497836 29.961983,32.4123123 33.4144103,32.1681445 C33.4654963,32.1618994 33.5219382,32.1558556 33.5829118,32.1496104 C34.0871805,32.0974326 34.7778719,32.0257133 35.45023,31.3022757 C35.8863153,30.8387195 36.1592548,29.6682453 36.2264082,29.1587566 C36.2428876,28.9738176 36.4175689,26.9590306 36.4175689,25.0026665 L36.4175689,25.0026665 L36.4175689,23.0267609 C36.4175689,21.0387679 36.2377378,18.9957766 36.2257902,18.8638212 C36.1584308,18.2608558 35.893319,17.1471929 35.4648555,16.7106322 L35.4648555,16.7106322 C34.7690142,15.984777 34.0177611,15.9009702 33.5207022,15.8455691 C33.4706461,15.8399283 33.4240919,15.8346903 33.3814516,15.8294524 C30.146566,15.6008061 25.3913716,15.5533805 24.6063092,15.5469983 Z M21.5267185,20.1414314 C21.8564479,19.9575343 22.2540628,19.9510685 22.5904596,20.1243158 L22.5904596,20.1243158 L28.4409344,23.1374128 C28.7872311,23.3157948 29.0013936,23.6571548 29,24.0285622 C28.998363,24.3999696 28.7815739,24.7398082 28.4342671,24.915718 L28.4342671,24.915718 L22.5835902,27.8768978 C22.4229683,27.9582917 22.2484057,27.9987985 22.0742472,27.9987985 C21.8841274,27.9987985 21.6944118,27.9504946 21.5232839,27.8542672 C21.1955748,27.6699898 21,27.345365 21,26.9861287 L21,26.9861287 L21,21.0116618 C21,20.650714 21.1967871,20.3255186 21.5267185,20.1414314 Z M22.5518699,21.76931 L22.5518699,26.234566 L26.9244215,24.0213357 L22.5518699,21.76931 Z" id="Combined-Shape"></path>
                    </g>
                </g>
            </g>
        </g>
    </g>
</svg>